<svg width="24" height="24" xmlns="http://www.w3.org/2000/svg">

 <g>
  <title>background</title>
  <rect fill="none" id="canvas_background" height="402" width="582" y="-1" x="-1"/>
 </g>
 <g>
  <title>Layer 1</title>
  <path fill="#ffffff" id="svg_1" d="m19.961588,7l-4,0l0,-3c0,-2.209 -1.791,-4 -4,-4s-4,1.791 -4,4l0,3l-4,0l-2,17l20,0l-2,-17zm-11,-3c0,-1.654 1.346,-3 3,-3s3,1.346 3,3l0,3l-6,0l0,-3zm-4.751,18l1.529,-13l2.222,0l0,1.5c0,0.276 0.224,0.5 0.5,0.5s0.5,-0.224 0.5,-0.5l0,-1.5l6,0l0,1.5c0,0.276 0.224,0.5 0.5,0.5s0.5,-0.224 0.5,-0.5l0,-1.5l2.222,0l1.529,13l-15.502,0z"/>
 </g>
</svg>